<svg width="200" height="300" viewBox="0 0 200 300" fill="none" xmlns="http://www.w3.org/2000/svg">
<g clip-path="url(#clip0)">
<path d="M118.904 188.82L113.193 193.975L119.294 198.7L126.906 199.52L127.976 190.828L121.265 188.82H118.904Z" fill="#E9BA8E"/>
<path d="M127.276 199.989L119.134 199.1L112.533 193.995L118.744 188.391L121.395 188.411L128.456 190.529L127.276 199.989ZM119.464 198.291L126.536 199.06L127.506 191.138L121.195 189.25H119.064L113.853 193.955L119.464 198.291Z" fill="#C38555"/>
<path d="M128.686 172.596C132.147 177.271 132.957 179.909 132.957 179.909L124.025 182.796L124.435 171.188L128.686 172.596Z" fill="#E9BA8E"/>
<path d="M123.575 183.387L124.026 170.609L128.947 172.238L129.027 172.348C132.487 177.023 133.328 179.68 133.358 179.79L133.478 180.19L123.575 183.387ZM124.836 171.768L124.476 182.208L132.407 179.64C132.057 178.761 130.987 176.434 128.426 172.957L124.836 171.768Z" fill="#C38555"/>
<path d="M42.9982 154.938C12.9918 145.027 16.4225 102.39 16.4225 102.39C-0.411062 79.2028 16.0124 49.5023 22.3538 42.9688C18.763 44.6271 4.62002 52.0398 1.12927 67.1847C-2.88158 84.5775 4.78004 99.2429 8.70088 104.608C8.70088 104.608 1.81941 111.89 1.67938 120.822C1.49934 132.2 9.88113 141.951 43.6183 181.771L64.2627 158.304C65.1829 156.966 66.0231 155.637 66.8333 154.328C66.5332 154.418 53.1103 158.274 42.9982 154.938Z" fill="#506E1B"/>
<path d="M16.4225 102.392C16.4225 102.392 12.9917 145.02 42.9981 154.94C53.1103 158.277 66.5331 154.421 66.8232 154.341C88.1677 119.685 73.8047 93.2812 73.8047 93.2812C80.076 57.6166 53.5003 44.5496 53.5003 44.5496C55.4108 27.1369 43.4382 14.3496 36.0866 11.2227C24.0641 16.6273 23.834 37.4366 23.2039 42.6115C23.2039 42.6115 22.9038 42.7314 22.3637 42.9811C16.0024 49.5047 -0.411129 79.2052 16.4225 102.392Z" fill="#6E9523"/>
<path d="M63.1224 41.0606C63.1224 41.0606 61.4821 10.2811 42.7881 9.92145C40.2075 9.8715 37.9971 10.361 36.0767 11.2202C43.4282 14.3471 55.4008 27.1344 53.4904 44.5471C53.4904 44.5471 80.066 57.6141 73.7947 93.2787C73.7947 93.2787 88.1678 119.693 66.8132 154.338H66.8232H66.8132C66.003 155.657 65.1529 156.976 64.2427 158.314L86.2674 133.279C86.2674 133.279 89.318 112.839 86.2674 106.036C83.5468 99.9721 81.2263 98.5235 81.2263 98.5235C81.2263 98.5235 88.8279 88.6833 89.288 73.3785C89.7381 58.0837 76.2452 42.609 63.1224 41.0606Z" fill="#81A429"/>
<path d="M43.6077 182.387C43.2777 182.387 43.0077 182.117 42.9977 181.788L41.6777 42.9453C41.6777 42.6057 41.9477 42.3359 42.2777 42.3359C42.2777 42.3359 42.2777 42.3359 42.2877 42.3359C42.6177 42.3359 42.8877 42.6057 42.8977 42.9353L44.2177 181.778C44.2177 182.107 43.9477 182.377 43.6077 182.387Z" fill="#19240C"/>
<path d="M42.7381 91.4407C42.5881 91.4407 42.428 91.3807 42.318 91.2708C42.078 91.0411 42.078 90.6515 42.308 90.4117C47.8992 84.7074 56.381 76.016 56.8011 75.4665C56.9411 75.1668 57.2812 75.0769 57.5813 75.2168C57.8813 75.3566 57.9914 75.7662 57.8513 76.0659C57.8013 76.1858 57.6513 76.4955 43.1782 91.2609C43.0482 91.3807 42.8981 91.4407 42.7381 91.4407Z" fill="#19240C"/>
<path d="M42.9382 106.134C42.7782 106.134 42.6281 106.074 42.5081 105.955L24.2642 87.413C24.0242 87.1732 24.0342 86.7936 24.2742 86.5538C24.5143 86.3141 24.8944 86.324 25.1344 86.5638L43.3783 105.105C43.6183 105.345 43.6083 105.725 43.3683 105.965C43.2483 106.084 43.0982 106.134 42.9382 106.134Z" fill="#19240C"/>
<path d="M42.9881 117.834C42.8281 117.834 42.6781 117.774 42.558 117.654C42.328 117.415 42.328 117.035 42.568 116.795L60.5619 99.1827C60.8019 98.943 61.182 98.9529 61.422 99.1927C61.6521 99.4325 61.6521 99.8121 61.412 100.052L43.4182 117.664C43.2982 117.774 43.1381 117.834 42.9881 117.834Z" fill="#19240C"/>
<path d="M43.2083 141.382C43.0582 141.382 42.9082 141.322 42.7882 141.212L16.4226 116.237C16.1825 116.007 16.1725 115.627 16.4025 115.378C16.6326 115.138 17.0127 115.128 17.2627 115.358L43.6283 140.333C43.8684 140.563 43.8784 140.952 43.6484 141.192C43.5383 141.322 43.3783 141.382 43.2083 141.382Z" fill="#19240C"/>
<path d="M42.9382 151.729C42.7882 151.729 42.6282 151.669 42.5082 151.549C42.2681 151.31 42.2681 150.93 42.5082 150.69L71.4243 121.629C71.6644 121.389 72.0445 121.389 72.2845 121.629C72.5246 121.869 72.5246 122.248 72.2845 122.488L43.3683 151.549C43.2583 151.669 43.0983 151.729 42.9382 151.729Z" fill="#19240C"/>
<path d="M153.912 62.2282C153.912 62.2282 162.284 51.5788 159.393 40.1302C156.492 28.6715 148.511 23.217 141.099 21.5986C141.099 21.5986 141.539 0.0199802 126.686 0C125.266 0 124.005 0.269732 122.875 0.749257C130.257 4.7353 134.758 13.9961 134.758 24.2759C134.758 24.2759 152.281 33.6266 149.051 58.512C149.051 58.512 157.863 75.9846 144.1 100.35C149.201 94.3564 154.072 88.4922 156.282 85.4452C162.324 77.1235 156.983 64.3262 153.912 62.2282Z" fill="#81A429"/>
<path d="M127.656 101.01C107.382 95.7051 108.332 64.4361 108.332 64.4361C98.6202 50.8796 106.352 29.6906 112.603 23.207C108.742 25.1751 98.6402 31.4289 97.2499 43.6967C95.5195 58.9016 103.641 66.4042 103.641 66.4042C103.641 66.4042 98.6702 70.2603 98.6702 77.9627C98.6702 85.6651 109.332 98.6422 119.375 109.901L127.746 119.242C127.746 119.242 135.778 110.111 143.5 101.04C142.059 101.26 133.308 102.488 127.656 101.01Z" fill="#506E1B"/>
<path d="M149.051 58.5127C152.282 33.6174 134.758 24.2767 134.758 24.2767C134.758 13.9969 130.247 4.73604 122.876 0.75C114.794 4.20657 113.744 18.5923 114.104 22.5084C114.104 22.5084 113.534 22.7382 112.613 23.2077C106.362 29.6913 98.6304 50.8902 108.342 64.4368C108.342 64.4368 107.392 95.7058 127.667 101.011C133.318 102.489 142.08 101.26 143.52 101.04C143.72 100.811 143.92 100.581 144.11 100.341C157.863 75.9854 149.051 58.5127 149.051 58.5127Z" fill="#6E9523"/>
<path d="M127.746 119.85C127.416 119.85 127.146 119.58 127.136 119.251L126.356 22.9961C126.356 22.6664 126.626 22.3867 126.956 22.3867C127.276 22.4267 127.566 22.6564 127.566 22.9861L128.346 119.241C128.356 119.57 128.086 119.84 127.746 119.85C127.756 119.85 127.746 119.85 127.746 119.85Z" fill="#19240C"/>
<path d="M127.236 56.9831C127.076 56.9831 126.916 56.9231 126.806 56.8032C126.576 56.5635 126.576 56.1839 126.816 55.9441L136.928 46.0539C137.168 45.8241 137.548 45.8241 137.788 46.0639C138.018 46.3037 138.018 46.6833 137.778 46.923L127.666 56.8132C127.546 56.9231 127.386 56.9831 127.236 56.9831Z" fill="#19240C"/>
<path d="M127.236 67.8308C127.076 67.8308 126.916 67.7709 126.796 67.641L113.903 54.3142C113.673 54.0744 113.673 53.6848 113.913 53.4551C114.153 53.2253 114.543 53.2253 114.773 53.475L127.666 66.8018C127.896 67.0416 127.896 67.4312 127.656 67.661C127.546 67.7709 127.386 67.8308 127.236 67.8308Z" fill="#19240C"/>
<path d="M127.386 75.7052C127.236 75.7052 127.086 75.6453 126.966 75.5354C126.726 75.3056 126.716 74.916 126.956 74.6763L139.349 61.9389C139.579 61.6991 139.969 61.6991 140.209 61.9289C140.449 62.1587 140.459 62.5483 140.219 62.7881L127.826 75.5254C127.706 75.6453 127.546 75.7052 127.386 75.7052Z" fill="#19240C"/>
<path d="M127.576 98.7918C127.426 98.7918 127.266 98.7319 127.146 98.612C126.906 98.3722 126.906 97.9926 127.146 97.7529L146.92 77.8126C147.15 77.5729 147.54 77.5729 147.781 77.8126C148.021 78.0524 148.021 78.432 147.781 78.6718L128.006 98.612C127.886 98.7319 127.736 98.7918 127.576 98.7918Z" fill="#19240C"/>
<path d="M127.386 92.7051C127.236 92.7051 127.076 92.6451 126.956 92.5252L108.552 74.2733C108.312 74.0336 108.312 73.654 108.552 73.4142C108.782 73.1744 109.172 73.1744 109.413 73.4142L127.816 91.6661C128.057 91.9058 128.057 92.2855 127.816 92.5252C127.706 92.6451 127.546 92.7051 127.386 92.7051Z" fill="#19240C"/>
<path d="M75.7353 185.487C43.2584 188.424 30.9658 200.512 31.6059 207.325C32.2461 214.138 47.3793 225.627 62.9326 225.847C78.4859 226.067 91.8488 216.316 104.141 217.695C116.444 219.074 123.486 224.598 123.486 224.598L134.128 211.761L90.5685 185.197C90.5785 185.187 83.7671 184.758 75.7353 185.487Z" fill="#3589BD"/>
<path d="M93.5991 149.212C88.628 148.982 81.7365 141.17 80.6863 134.617C80.0562 130.691 84.2771 133.598 85.3973 132.509C86.5276 131.41 80.5763 126.215 81.7666 117.723C82.5467 112.139 88.1679 119.781 87.5278 112.629C87.1077 107.923 85.3473 108.612 85.8874 106.115C86.4275 103.617 97.1298 106.315 101.531 106.804C104.181 107.094 103.011 104.696 102.901 103.478C102.771 102.069 107.702 101.999 116.534 108.473C120.305 111.24 119.395 108.972 120.635 107.833C121.875 106.694 132.037 115.805 125.476 130.031L121.265 154.457L93.5991 149.212Z" fill="#E65B15"/>
<path d="M121.605 154.935L93.549 149.63C88.4079 149.36 81.3464 141.418 80.2662 134.675C80.1062 133.646 80.2362 132.936 80.6663 132.507C81.3064 131.868 82.3566 132.037 83.3669 132.207C84.057 132.327 84.8372 132.447 85.0972 132.197C85.2673 132.037 84.6171 130.839 84.197 130.049C82.8367 127.522 80.5563 123.296 81.3464 117.662C81.5065 116.553 81.8565 115.813 82.4367 115.414C83.2268 114.874 84.2071 115.094 85.0672 115.294C85.7574 115.454 86.4175 115.604 86.7376 115.314C86.9876 115.094 87.2577 114.455 87.0977 112.657C86.8876 110.309 86.3575 109.4 85.9274 108.671C85.5073 107.951 85.1672 107.382 85.4673 106.023C85.9274 103.905 90.7284 104.565 97.4699 105.733C99.0302 106.003 100.511 106.263 101.571 106.383C101.951 106.423 102.451 106.423 102.671 106.193C102.961 105.873 102.781 105.054 102.641 104.405C102.571 104.085 102.501 103.775 102.481 103.516C102.441 103.116 102.641 102.766 103.031 102.547C104.431 101.757 109.242 102.597 116.784 108.131C118.314 109.25 118.914 109.42 119.144 109.36C119.295 109.32 119.395 109.1 119.555 108.74C119.725 108.361 119.935 107.901 120.345 107.522C120.775 107.132 121.535 107.302 122.495 108.001C125.136 109.919 131.407 118.111 125.876 130.169L121.605 154.935ZM81.9966 132.907C81.6765 132.907 81.4164 132.956 81.2564 133.116C81.0364 133.336 80.9764 133.836 81.0964 134.555C82.1066 140.859 88.888 148.581 93.609 148.791L93.6691 148.801L120.905 153.956L125.076 129.85C129.047 121.228 126.856 113.985 123.475 110.079C122.155 108.551 121.095 108.101 120.885 108.151C120.635 108.391 120.475 108.74 120.325 109.07C120.125 109.52 119.905 110.019 119.355 110.159C118.704 110.329 117.814 109.929 116.264 108.8C108.822 103.346 104.401 102.726 103.431 103.276C103.301 103.346 103.311 103.396 103.311 103.426C103.331 103.656 103.391 103.925 103.451 104.205C103.651 105.094 103.871 106.103 103.291 106.752C102.921 107.162 102.331 107.312 101.471 107.222C100.381 107.102 98.8902 106.842 97.3198 106.573C93.579 105.923 86.6176 104.724 86.2975 106.203C86.0774 107.242 86.2775 107.602 86.6576 108.251C87.1077 109.01 87.7178 110.059 87.9478 112.597C88.1079 114.395 87.9078 115.434 87.2977 115.963C86.6476 116.533 85.7474 116.323 84.8772 116.133C84.147 115.963 83.3969 115.793 82.9168 116.123C82.5567 116.373 82.3066 116.932 82.1866 117.782C81.4365 123.146 83.6269 127.222 84.9472 129.65C85.8074 131.238 86.3175 132.207 85.6974 132.817C85.1272 133.366 84.167 133.206 83.2368 133.056C82.8168 132.976 82.3767 132.907 81.9966 132.907Z" fill="#802D0D"/>
<path d="M59.1217 240.602C69.2139 240.172 77.3456 240.522 81.0764 235.267C84.8072 230.013 67.0034 226.546 58.9517 227.645C50.9 228.744 44.8787 233.489 42.4182 235.857C39.9577 238.234 45.4388 241.181 59.1217 240.602Z" fill="#3589BD"/>
<path d="M93.5987 149.211C89.1777 148.372 85.1969 145.385 81.4861 137.513C81.4861 137.513 87.3273 142.868 89.2977 138.752C91.2682 134.636 84.9968 126.334 85.3069 122.068C85.627 117.802 92.8385 122.668 92.5984 116.664C92.4384 112.797 91.2482 112.677 91.7683 109.78C92.2884 106.883 100.19 111.688 103.741 112.528C107.292 113.367 104.471 109.66 106.501 107.792C108.532 105.924 113.993 110.31 117.614 114.116C119.164 115.744 119.804 112.288 121.235 113.237C122.665 114.186 127.756 119.93 126.206 128.272L121.265 154.436L93.5987 149.211Z" fill="#B15928"/>
<path d="M121.605 154.936L93.5189 149.621C88.3578 148.642 84.527 144.956 81.0962 137.683L80.176 135.735L81.7664 137.193C81.7964 137.223 85.1771 140.26 87.4176 139.831C88.0677 139.701 88.5578 139.291 88.9079 138.562C89.9481 136.394 88.4378 132.798 86.9775 129.321C85.8272 126.574 84.737 123.966 84.877 122.038C85.0471 119.711 87.0575 119.651 88.6778 119.611C89.8081 119.581 90.9783 119.551 91.6085 118.881C92.0285 118.432 92.2086 117.713 92.1686 116.684C92.0986 114.965 91.8185 114.036 91.5784 113.207C91.2884 112.228 91.0383 111.379 91.3384 109.71C91.4184 109.241 91.6785 108.881 92.0686 108.662C93.4589 107.912 96.4295 109.171 99.5802 110.51C101.211 111.199 102.741 111.858 103.841 112.108C104.671 112.308 104.971 112.188 105.071 112.108C105.291 111.928 105.271 111.359 105.261 110.749C105.231 109.71 105.191 108.412 106.212 107.473C109.092 104.825 116.464 112.298 117.914 113.816C118.114 114.026 118.284 114.126 118.424 114.126C118.674 114.126 118.974 113.816 119.264 113.507C119.754 112.997 120.495 112.238 121.455 112.877C123.365 114.146 128.126 120.17 126.606 128.342L121.605 154.936ZM93.6789 148.792L120.925 153.947L125.796 128.192C127.356 119.79 122.105 114.316 121.005 113.587C120.685 113.367 120.465 113.517 119.894 114.106C119.494 114.516 119.044 114.975 118.444 114.975C118.054 114.975 117.684 114.785 117.324 114.396C113.293 110.16 108.392 106.644 106.812 108.092C106.072 108.771 106.102 109.76 106.132 110.719C106.152 111.539 106.182 112.308 105.631 112.757C105.221 113.087 104.601 113.147 103.661 112.927C102.501 112.658 100.93 111.988 99.2601 111.279C96.6995 110.19 93.5189 108.831 92.4886 109.391C92.3786 109.451 92.2486 109.551 92.1986 109.84C91.9385 111.319 92.1386 111.998 92.4186 112.947C92.6587 113.776 92.9687 114.805 93.0388 116.624C93.0888 117.892 92.8287 118.811 92.2486 119.431C91.3784 120.36 89.9681 120.4 88.7178 120.43C86.8975 120.48 85.8572 120.58 85.7472 122.068C85.6172 123.806 86.6674 126.314 87.7876 128.961C89.318 132.608 90.8983 136.384 89.698 138.902C89.2279 139.881 88.5278 140.46 87.6076 140.64C85.9873 140.959 84.0368 139.891 82.7166 138.971C85.7772 144.896 89.218 147.943 93.6789 148.792Z" fill="#802D0D"/>
<path d="M120.935 236.575C115.123 236.685 107.622 237.444 106.942 241.191C106.251 244.937 111.133 247.125 114.623 246.995C118.124 246.875 125.876 244.807 127.746 242.439C129.616 240.072 124.425 236.505 120.935 236.575Z" fill="#3589BD"/>
<path d="M104.151 217.688C111.673 217.688 119.244 213.952 123.315 208.097L127.316 200.765L118.464 196.199L111.233 203.422L104.151 217.688Z" fill="#BE5B51"/>
<path d="M104.151 218.116H103.471L110.933 203.111L118.384 195.668L127.906 200.583L123.695 208.295C119.534 214.27 111.883 218.116 104.151 218.116ZM111.583 203.66L104.841 217.247C112.063 217.027 119.114 213.38 122.975 207.846L126.746 200.933L118.554 196.707L111.583 203.66Z" fill="#B04F44"/>
<path d="M115.914 158.157L115.794 159.835L121.035 161.474V169.326L104.661 168.237C104.661 168.237 101.861 163.641 102.131 159.536C102.391 155.44 100.31 151.124 100.31 151.124C100.18 152.213 95.1093 153.801 93.429 148.716C91.1485 141.823 97.0197 142.642 97.0197 142.642C96.8997 140.345 96.0795 128.257 98.5801 122.592C98.5801 122.592 100.55 124.71 107.732 122.592C114.904 120.474 120.515 119.595 122.505 122.592C122.505 122.592 122.145 131.124 123.005 133.531C123.855 135.939 125.496 142.043 125.496 144.99C125.496 147.937 124.216 155.39 116.904 157.867C109.582 160.355 104.901 153.961 104.121 152.692" fill="#E9BA8E"/>
<path d="M121.465 169.784L104.411 168.645L104.301 168.456C104.181 168.266 101.441 163.7 101.701 159.514C101.891 156.487 100.751 153.301 100.2 151.962C99.7104 152.332 98.9502 152.581 98.2401 152.651C97.3399 152.741 94.2892 152.741 93.0089 148.855C92.2088 146.427 92.2888 144.619 93.249 143.46C94.2092 142.312 95.7495 142.172 96.5597 142.192C96.0396 132.701 96.5797 126.058 98.1801 122.431L98.4401 121.842L98.8802 122.311C98.9002 122.321 100.851 124.18 107.602 122.191C114.173 120.253 120.575 118.935 122.855 122.361L122.935 122.471L122.925 122.611C122.925 122.691 122.585 131.083 123.395 133.39C124.296 135.948 125.906 142.002 125.906 144.989C125.906 146.038 125.656 155.339 117.024 158.266C116.794 158.346 116.554 158.416 116.324 158.475L116.254 159.514L121.465 161.143V169.784ZM104.911 167.826L120.605 168.875V161.792L115.344 160.154L115.444 158.705C108.202 160.084 103.911 153.241 103.721 152.931C103.601 152.731 103.661 152.471 103.861 152.352C104.061 152.232 104.321 152.292 104.441 152.491C104.621 152.791 108.802 159.445 115.774 157.766C115.794 157.756 115.814 157.756 115.834 157.756C116.124 157.686 116.424 157.596 116.734 157.496C124.806 154.759 125.046 146.008 125.046 145.019C125.046 142.172 123.445 136.138 122.585 133.7C121.765 131.382 122.015 123.91 122.055 122.741C119.995 119.904 113.713 121.292 107.832 123.021C102.331 124.649 99.7404 123.82 98.7502 123.27C97.3499 126.887 96.8998 133.261 97.3999 142.242L97.4499 143.151L96.9398 143.081C96.9198 143.081 94.8893 142.821 93.8891 144.02C93.129 144.929 93.109 146.467 93.8091 148.595C94.7693 151.502 96.7497 151.852 97.89 151.832C99.0702 151.792 99.8204 151.283 99.8704 151.083L100.04 149.644L100.671 150.953C100.761 151.133 102.801 155.409 102.541 159.574C102.331 163.031 104.411 166.937 104.911 167.826Z" fill="#C38555"/>
<path d="M91.0581 202.721C90.8981 209.714 91.7683 218.685 104.161 217.686C116.554 216.697 120.975 207.606 122.705 201.722L123.055 199.854L111.893 194.18C111.893 194.18 105.801 202.322 102.911 204.599C100.01 206.867 91.0581 202.721 91.0581 202.721Z" fill="#FE7F70"/>
<path d="M102.361 218.185C98.82 218.185 96.0694 217.275 94.149 215.467C90.8583 212.36 90.5282 207.275 90.6282 202.71L90.6382 202.061L91.2284 202.33C93.6489 203.449 100.43 205.987 102.631 204.258C105.441 202.051 111.473 193.999 111.533 193.919L111.743 193.629L123.505 199.613L123.095 201.791C120.175 211.721 113.633 217.345 104.171 218.105C103.561 218.155 102.951 218.185 102.361 218.185ZM91.4684 203.369C91.4184 207.575 91.8285 212.111 94.7291 214.848C96.7795 216.786 99.9402 217.605 104.121 217.265C115.594 216.346 120.335 208.244 122.285 201.601L122.565 200.082L112.003 194.708C110.873 196.196 105.781 202.85 103.161 204.918C100.51 207.006 93.5589 204.258 91.4684 203.369Z" fill="#B04F44"/>
<path d="M97.0096 143.067C96.7795 143.067 96.5995 142.887 96.5895 142.667L96.5695 142.268C96.0394 132.737 96.5795 126.064 98.1898 122.427L98.4499 121.838L98.89 122.307C98.91 122.317 100.86 124.176 107.612 122.188C114.183 120.25 120.585 118.931 122.865 122.357L122.945 122.467L122.935 122.607C122.935 122.687 122.595 131.079 123.405 133.386C123.815 134.545 124.335 136.334 124.766 138.062C124.826 138.292 124.685 138.521 124.455 138.581C124.215 138.631 123.995 138.501 123.935 138.272C123.515 136.563 122.995 134.805 122.595 133.666C121.775 131.349 122.025 123.876 122.065 122.707C120.005 119.87 113.723 121.259 107.842 122.987C102.341 124.615 99.7502 123.786 98.76 123.237C97.3597 126.853 96.9096 133.227 97.4097 142.208L97.4297 142.607C97.4397 142.837 97.2597 143.047 97.0296 143.057C97.0196 143.067 97.0096 143.067 97.0096 143.067Z" fill="#802D0D"/>
<path d="M102.121 217.323C93.629 215.875 93.0989 210.01 92.6988 206.304L91.4785 205.375C91.4785 205.375 91.5185 210.6 93.5089 213.377C94.6492 214.965 96.1395 216.254 98.31 216.824C100.17 217.323 102.121 217.323 102.121 217.323Z" fill="#F8B3AA"/>
<path d="M95.4595 148.864C95.4595 148.864 94.5593 147.705 94.8194 146.217C95.2395 143.749 98.1201 144.079 99.5304 146.477C99.5304 146.477 97.53 146.706 97.49 147.775C97.44 148.844 99.0203 149.304 97.63 149.903" fill="#E9BA8E"/>
<path d="M97.6198 150.324C97.4597 150.324 97.2997 150.234 97.2297 150.074C97.1396 149.855 97.2397 149.605 97.4497 149.515C97.7298 149.395 97.7798 149.315 97.7798 149.315C97.7498 149.315 97.6397 149.165 97.5697 149.065C97.3397 148.756 97.0296 148.336 97.0496 147.757C97.0896 146.808 98.0999 146.378 98.81 146.188C98.0198 145.189 97.0196 144.85 96.3495 144.97C95.7493 145.079 95.3593 145.539 95.2292 146.288C95.0092 147.587 95.7793 148.596 95.7893 148.606C95.9294 148.786 95.8994 149.055 95.7194 149.205C95.5293 149.345 95.2693 149.315 95.1192 149.135C95.0792 149.085 94.109 147.817 94.3891 146.148C94.5791 145.039 95.2392 144.31 96.1894 144.13C97.4797 143.901 99 144.77 99.8802 146.258L100.21 146.818L99.5602 146.898C99.0301 146.958 97.9098 147.267 97.8898 147.797C97.8798 148.076 98.0498 148.316 98.2399 148.566C98.4499 148.846 98.68 149.165 98.58 149.565C98.4699 149.955 98.0698 150.174 97.7698 150.304C97.7398 150.314 97.6798 150.324 97.6198 150.324Z" fill="#C38555"/>
<path d="M98.7498 185.547C97.5998 185.547 96.8798 185.167 96.8398 185.147L97.1298 184.617C97.1398 184.617 97.8998 185.027 99.1198 184.927L99.1698 185.527C99.0298 185.537 98.8898 185.547 98.7498 185.547Z" fill="#11BFFF"/>
<path d="M129.987 171.999C127.486 173.038 125.726 174.347 125.726 174.347L116.664 159.602C116.654 159.602 125.656 159.022 129.987 171.999Z" fill="#90D1DB"/>
<path d="M125.726 174.764C125.696 174.764 125.676 174.764 125.646 174.754C125.526 174.734 125.426 174.664 125.366 174.564L116.304 159.819C116.224 159.689 116.224 159.529 116.284 159.399C116.354 159.27 116.484 159.18 116.634 159.17C116.714 159.17 126.016 158.73 130.397 171.857C130.467 172.067 130.367 172.297 130.157 172.387C127.736 173.396 126.006 174.664 125.986 174.684C125.906 174.744 125.816 174.764 125.726 174.764ZM117.434 160.059L125.846 173.735C126.456 173.326 127.756 172.496 129.457 171.757C125.976 161.747 119.604 160.269 117.434 160.059Z" fill="#307F8C"/>
<path d="M101.361 159.62C100.041 159.45 98.8003 160.868 98.4602 161.068C98.1201 161.278 93.3991 165.494 92.4089 168.011C91.4187 170.529 89.9084 181.038 90.9586 201.428C90.9586 201.428 90.6985 206.643 95.5196 207.962C100.341 209.28 106.922 199.98 109.182 197.872C111.443 195.764 125.476 192.267 125.476 192.267C125.476 192.267 126.036 173.466 125.476 170.629C124.916 167.791 121.815 160.668 116.654 159.61C116.654 159.61 119.955 161.717 119.625 165.014C119.295 168.311 110.573 170.689 104.702 163.036L101.361 159.62Z" fill="#90D1DB"/>
<path d="M96.4797 208.511C96.1197 208.511 95.7596 208.461 95.4095 208.371C90.3184 206.973 90.5385 201.468 90.5385 201.408C89.4583 180.589 91.0286 170.359 92.0188 167.861C93.069 165.204 97.8601 160.938 98.2401 160.709C98.3001 160.679 98.3802 160.589 98.5002 160.499C99.0903 159.989 100.171 159.02 101.421 159.2C101.511 159.21 101.601 159.26 101.671 159.32L105.012 162.737C108.692 167.522 113.413 168.241 116.344 167.402C117.984 166.932 119.105 165.983 119.205 164.964C119.505 161.967 116.454 159.979 116.424 159.959C116.254 159.849 116.184 159.63 116.264 159.44C116.344 159.25 116.544 159.14 116.744 159.18C122.235 160.309 125.376 167.891 125.896 170.529C126.456 173.376 125.926 191.488 125.906 192.267C125.896 192.457 125.766 192.617 125.586 192.667C120.765 193.866 111.203 196.563 109.483 198.171C109.032 198.591 108.362 199.35 107.602 200.229C104.822 203.396 100.341 208.511 96.4797 208.511ZM101.141 160.029C100.331 160.029 99.5104 160.738 99.0603 161.138C98.9003 161.278 98.7702 161.388 98.6902 161.438C98.3101 161.688 93.7392 165.823 92.809 168.171C92.0388 170.129 90.2784 179.919 91.3887 201.408C91.3787 201.648 91.2086 206.343 95.6396 207.552C99.1903 208.531 104.051 202.987 106.952 199.67C107.762 198.741 108.412 198.012 108.892 197.552C111.043 195.544 122.915 192.467 125.066 191.918C125.136 189.43 125.566 173.246 125.066 170.689C124.646 168.551 122.435 162.986 118.614 160.788C119.455 161.787 120.245 163.246 120.065 165.034C119.925 166.413 118.594 167.632 116.584 168.201C113.403 169.1 108.282 168.361 104.371 163.266L101.181 160.009C101.161 160.029 101.151 160.029 101.141 160.029Z" fill="#307F8C"/>
<path d="M150.961 160.139C152.401 158.801 151.911 156.793 150.631 158.421C147.71 162.167 145.33 162.867 143.32 163.396L141.329 165.374L142.819 168.042L148.281 166.353L151.461 163.966" fill="#E9BA8E"/>
<path d="M142.629 168.562L140.819 165.315L143.11 163.027L143.22 162.997C145.08 162.518 147.39 161.918 150.301 158.172C150.761 157.583 151.201 157.333 151.611 157.413C151.901 157.473 152.121 157.693 152.212 158.012C152.382 158.622 152.111 159.661 151.251 160.46C151.081 160.62 150.811 160.61 150.651 160.44C150.491 160.27 150.501 160 150.671 159.841C151.361 159.201 151.471 158.462 151.391 158.252C151.361 158.302 151.201 158.392 150.961 158.702C147.931 162.588 145.4 163.307 143.53 163.797L141.849 165.475L143.02 167.563L148.081 166.004L151.201 163.667C151.391 163.527 151.651 163.567 151.801 163.757C151.941 163.946 151.901 164.206 151.711 164.356L148.401 166.804L142.629 168.562Z" fill="#C38555"/>
<path d="M93.0987 174.569C93.0987 174.569 91.6584 192.561 93.2287 202.431C93.5588 204.489 94.799 207.157 100.38 206.108C99.16 207.067 97.3896 207.746 96.3394 207.676C95.2992 207.606 93.6488 206.987 92.5286 205.428C91.4083 203.87 91.4283 202.092 91.3883 201.402C91.3483 200.713 91.0583 192.421 91.0483 191.412C91.0283 190.403 91.0583 184.809 91.1083 183.001C91.1583 181.192 91.4684 175.668 92.0985 171.152L93.3388 175.368" fill="#D4EDF1"/>
<path d="M108.112 139.973C109.543 139.973 110.703 138.954 110.703 137.696C110.703 136.438 109.543 135.418 108.112 135.418C106.681 135.418 105.521 136.438 105.521 137.696C105.521 138.954 106.681 139.973 108.112 139.973Z" fill="white"/>
<path d="M107.932 138.817C108.804 138.817 109.512 138.146 109.512 137.319C109.512 136.491 108.804 135.82 107.932 135.82C107.059 135.82 106.352 136.491 106.352 137.319C106.352 138.146 107.059 138.817 107.932 138.817Z" fill="#76C3D7"/>
<path d="M107.932 138.998C106.962 138.998 106.162 138.238 106.162 137.309C106.162 136.38 106.952 135.621 107.932 135.621C108.902 135.621 109.702 136.38 109.702 137.309C109.702 138.238 108.902 138.998 107.932 138.998ZM107.932 135.991C107.162 135.991 106.532 136.58 106.532 137.309C106.532 138.039 107.162 138.628 107.932 138.628C108.702 138.628 109.332 138.039 109.332 137.309C109.332 136.59 108.702 135.991 107.932 135.991Z" fill="#5CADC6"/>
<path d="M107.931 137.95C108.279 137.95 108.561 137.668 108.561 137.321C108.561 136.973 108.279 136.691 107.931 136.691C107.583 136.691 107.301 136.973 107.301 137.321C107.301 137.668 107.583 137.95 107.931 137.95Z" fill="black"/>
<path d="M104.931 136.424C105.221 135.845 105.742 135.415 106.312 135.126C106.882 134.826 107.532 134.686 108.182 134.656C108.832 134.656 109.502 134.776 110.082 135.076C110.663 135.366 111.173 135.835 111.443 136.415C110.243 135.995 109.262 135.845 108.202 135.865C107.682 135.865 107.152 135.925 106.612 136.015C106.082 136.115 105.542 136.235 104.931 136.424Z" fill="black"/>
<path d="M107.292 137.361C107.54 137.361 107.742 137.159 107.742 136.911C107.742 136.662 107.54 136.461 107.292 136.461C107.043 136.461 106.842 136.662 106.842 136.911C106.842 137.159 107.043 137.361 107.292 137.361Z" fill="white"/>
<path d="M119.634 136.657C120.694 136.657 121.554 135.798 121.554 134.738C121.554 133.679 120.694 132.82 119.634 132.82C118.574 132.82 117.714 133.679 117.714 134.738C117.714 135.798 118.574 136.657 119.634 136.657Z" fill="white"/>
<path d="M119.424 135.859C120.092 135.859 120.634 135.318 120.634 134.65C120.634 133.983 120.092 133.441 119.424 133.441C118.756 133.441 118.214 133.983 118.214 134.65C118.214 135.318 118.756 135.859 119.424 135.859Z" fill="#76C3D7"/>
<path d="M119.424 136.047C118.654 136.047 118.024 135.418 118.024 134.649C118.024 133.879 118.654 133.25 119.424 133.25C120.194 133.25 120.824 133.879 120.824 134.649C120.824 135.418 120.194 136.047 119.424 136.047ZM119.424 133.62C118.854 133.62 118.394 134.079 118.394 134.649C118.394 135.218 118.854 135.678 119.424 135.678C119.994 135.678 120.454 135.218 120.454 134.649C120.464 134.079 119.994 133.62 119.424 133.62Z" fill="#5CADC6"/>
<path d="M119.424 135.185C119.733 135.185 119.984 134.935 119.984 134.626C119.984 134.317 119.733 134.066 119.424 134.066C119.115 134.066 118.864 134.317 118.864 134.626C118.864 134.935 119.115 135.185 119.424 135.185Z" fill="black"/>
<path d="M117.144 134.627C117.264 134.108 117.514 133.608 117.934 133.229C118.344 132.839 118.924 132.589 119.525 132.559C120.765 132.529 121.775 133.389 122.115 134.378C121.175 133.878 120.365 133.488 119.565 133.528C118.764 133.548 118.004 133.998 117.144 134.627Z" fill="black"/>
<path d="M118.754 134.74C119.002 134.74 119.204 134.538 119.204 134.29C119.204 134.041 119.002 133.84 118.754 133.84C118.505 133.84 118.304 134.041 118.304 134.29C118.304 134.538 118.505 134.74 118.754 134.74Z" fill="white"/>
<path d="M143.119 167.365C143.489 166.496 145.159 165.457 147.239 165.996L143.119 167.365Z" fill="#E9BA8E"/>
<path d="M143.119 167.782C143.059 167.782 143.009 167.772 142.959 167.752C142.739 167.662 142.639 167.412 142.729 167.193C143.179 166.134 145.04 164.985 147.35 165.574C147.58 165.634 147.71 165.864 147.65 166.094C147.59 166.324 147.36 166.463 147.13 166.394C145.25 165.904 143.789 166.853 143.509 167.522C143.449 167.682 143.289 167.782 143.119 167.782Z" fill="#C38555"/>
<path d="M101.16 160.031C100.58 160.031 99.9602 160.441 99.9602 160.441C104.601 163.588 106.091 168.643 113.663 168.543C113.663 168.543 108.862 168.583 105.031 164.077C102.031 160.571 101.16 160.031 101.16 160.031Z" fill="#D4EDF1"/>
<path d="M123.525 192.769C123.525 192.769 122.305 192.539 123.325 180.052C124.345 167.564 121.585 164.577 119.244 161.73L118.594 160.801C118.594 160.801 120.095 161.5 122.035 164.078C123.925 166.585 124.766 169.502 124.966 170.301C125.166 171.101 125.256 173.558 125.276 175.037C125.296 176.525 125.276 179.332 125.276 179.332L123.525 192.769Z" fill="#76ACB4"/>
<path d="M118.604 160.809C122.654 164.535 119.934 167.752 116.964 168.112C116.964 168.112 119.794 167.143 120.044 165.085C120.324 162.747 118.624 160.779 118.604 160.809Z" fill="#76ACB4"/>
<path d="M148.601 162.168C150.981 160.37 152.171 158.581 152.651 158.451C153.262 158.282 153.802 158.961 152.631 160.29" fill="#E9BA8E"/>
<path d="M148.6 162.538C148.49 162.538 148.38 162.488 148.31 162.398C148.19 162.239 148.22 162.009 148.38 161.889C149.751 160.86 150.731 159.811 151.381 159.122C151.941 158.522 152.251 158.193 152.551 158.113C152.951 158.003 153.341 158.133 153.552 158.452C153.702 158.692 153.932 159.361 152.911 160.54C152.781 160.69 152.551 160.71 152.401 160.58C152.251 160.45 152.231 160.221 152.361 160.071C153.001 159.331 152.991 158.942 152.941 158.842C152.911 158.792 152.821 158.792 152.761 158.812C152.641 158.862 152.261 159.261 151.931 159.621C151.261 160.33 150.251 161.409 148.841 162.468C148.751 162.508 148.67 162.538 148.6 162.538Z" fill="#C38555"/>
<path d="M110.462 194.826C113.923 196.924 121.585 201.21 123.325 202.069C125.055 202.938 125.726 199.102 125.726 199.102L114.713 192.559L110.462 194.826Z" fill="#FE7F70"/>
<path d="M123.816 202.628C123.586 202.628 123.355 202.568 123.125 202.458C121.435 201.619 113.743 197.323 110.233 195.195L109.593 194.805L114.714 192.078L126.186 198.901L126.136 199.191C126.086 199.461 125.636 201.878 124.416 202.488C124.236 202.578 124.026 202.628 123.816 202.628ZM111.323 194.845C115.034 197.053 121.935 200.899 123.515 201.689C123.776 201.818 123.936 201.769 124.046 201.719C124.616 201.429 125.056 200.2 125.246 199.321L114.694 193.047L111.323 194.845Z" fill="#B04F44"/>
<path d="M103.401 132.109C103.211 132.109 103.011 132.059 102.831 131.969C102.241 131.65 102.021 130.92 102.331 130.331C103.221 128.673 106.322 127.324 108.602 127.614C109.272 127.694 109.742 128.303 109.652 128.972C109.572 129.632 108.962 130.111 108.292 130.021C106.762 129.831 104.781 130.88 104.461 131.48C104.251 131.869 103.831 132.109 103.401 132.109Z" fill="#802D0D"/>
<path d="M152.622 162.174C154.122 161.095 154.182 159.777 153.242 159.917C152.492 160.026 148.591 163.733 148.591 163.733" fill="#E9BA8E"/>
<path d="M148.601 164.101C148.501 164.101 148.411 164.061 148.341 163.991C148.201 163.841 148.211 163.611 148.351 163.471C149.281 162.582 152.391 159.685 153.192 159.565C153.652 159.495 154.022 159.685 154.162 160.045C154.442 160.714 153.892 161.713 152.832 162.472C152.672 162.592 152.442 162.552 152.321 162.392C152.201 162.232 152.241 162.003 152.401 161.883C153.332 161.223 153.562 160.524 153.482 160.324C153.462 160.274 153.352 160.274 153.292 160.284C152.862 160.374 150.651 162.282 148.841 164.001C148.781 164.061 148.691 164.101 148.601 164.101Z" fill="#C38555"/>
<path d="M120.645 129.584C120.435 129.584 120.215 129.524 120.015 129.414C119.754 129.304 118.234 129.104 117.104 129.304C116.444 129.424 115.814 128.974 115.704 128.315C115.594 127.656 116.034 127.026 116.694 126.916C118.084 126.677 120.395 126.807 121.275 127.336C121.845 127.686 122.035 128.425 121.685 129.004C121.455 129.374 121.055 129.584 120.645 129.584Z" fill="#802D0D"/>
<path d="M107.569 143C103.33 143 101.49 140.113 100.153 136.929C99.9165 136.371 99.9558 135.742 100.261 135.211C100.556 134.681 101.097 134.294 101.726 134.15L110.687 132.072C111.435 131.902 112.221 132.036 112.851 132.441C113.471 132.846 113.854 133.466 113.923 134.15C114.395 139.277 112.684 142.37 109.103 142.883C108.553 142.964 108.051 143 107.569 143Z" fill="url(#paint0_linear)"/>
<path d="M121.406 140C118.378 140 117.064 137.375 116.109 134.481C115.94 133.974 115.968 133.402 116.186 132.919C116.397 132.437 116.783 132.085 117.233 131.955L123.634 130.066C124.168 129.91 124.73 130.033 125.179 130.401C125.622 130.769 125.896 131.333 125.945 131.955C126.282 136.615 125.06 139.428 122.502 139.894C122.109 139.967 121.751 140 121.406 140Z" fill="url(#paint1_linear)"/>
<path d="M107.722 143.808C103.411 143.808 101.541 140.601 100.18 137.065C99.9402 136.446 99.9802 135.746 100.29 135.157C100.59 134.567 101.14 134.138 101.781 133.978L110.893 131.67C111.653 131.48 112.453 131.63 113.093 132.08C113.723 132.529 114.113 133.219 114.183 133.978C114.663 139.672 112.923 143.109 109.282 143.678C108.722 143.768 108.212 143.808 107.722 143.808ZM102.081 135.157C101.771 135.237 101.521 135.437 101.371 135.726C101.22 136.016 101.2 136.336 101.32 136.635C102.561 139.852 104.271 143.229 109.092 142.48C112.833 141.9 113.263 137.594 112.973 134.078C112.943 133.668 112.733 133.309 112.393 133.059C112.043 132.809 111.613 132.729 111.203 132.839L102.081 135.157Z" fill="black"/>
<path d="M121.915 140.709C118.284 140.709 115.894 138.061 115.304 133.336C115.164 132.217 115.884 131.178 116.974 130.938L124.176 129.3C124.656 129.19 125.146 129.28 125.556 129.54C125.966 129.809 126.246 130.209 126.336 130.689C126.776 132.876 127.246 136.872 125.566 139.1C124.856 140.049 123.836 140.579 122.545 140.679C122.335 140.699 122.125 140.709 121.915 140.709ZM124.586 130.459C124.546 130.459 124.496 130.459 124.456 130.469L117.254 132.107C116.774 132.217 116.454 132.677 116.514 133.176C116.824 135.674 117.994 139.809 122.455 139.47C123.395 139.39 124.096 139.03 124.606 138.361C126.056 136.443 125.476 132.517 125.156 130.918C125.126 130.768 125.036 130.639 124.906 130.549C124.806 130.489 124.696 130.459 124.586 130.459Z" fill="black"/>
<path d="M100.64 136.422L95.3593 141.317L94.9292 142.845L97.0096 142.646L101.711 139.039L100.64 136.422Z" fill="black"/>
<path d="M113.573 134.028L115.973 133.719L116.333 135.337L113.653 135.677" fill="black"/>
<path d="M116.674 143.049C115.964 143.049 115.334 142.959 115.094 142.929C114.924 142.899 114.814 142.749 114.844 142.579C114.864 142.409 115.034 142.3 115.194 142.33C116.444 142.519 118.404 142.539 118.724 141.82C118.884 141.46 118.564 141.121 117.944 140.491C117.314 139.852 116.524 139.053 116.054 137.804C115.994 137.644 116.074 137.474 116.234 137.414C116.384 137.354 116.564 137.434 116.624 137.594C117.044 138.713 117.784 139.462 118.374 140.062C119.034 140.731 119.604 141.311 119.284 142.06C118.924 142.869 117.714 143.049 116.674 143.049Z" fill="#994E2B"/>
<path d="M112.633 149.544C110.623 149.544 108.432 149.194 106.472 148.235C106.262 148.135 106.172 147.876 106.282 147.666C106.382 147.456 106.642 147.366 106.852 147.476C111.373 149.684 117.324 148.465 118.634 147.346C118.814 147.196 119.085 147.216 119.235 147.396C119.385 147.576 119.365 147.846 119.185 147.996C118.294 148.745 115.654 149.544 112.633 149.544Z" fill="#994E2B"/>
<path d="M106.171 149.292C106.111 149.292 106.051 149.282 105.991 149.252C105.781 149.152 105.691 148.902 105.791 148.683L106.761 146.655C106.861 146.445 107.111 146.355 107.331 146.455C107.541 146.555 107.631 146.805 107.531 147.024L106.561 149.052C106.481 149.202 106.331 149.292 106.171 149.292Z" fill="#994E2B"/>
<path d="M111.003 150.644C112.073 150.814 115.374 150.874 116.504 150.504L111.003 150.644Z" fill="#E9BA8E"/>
<path d="M113.493 151.072C112.433 151.072 111.433 151.012 110.953 150.932C110.783 150.902 110.673 150.752 110.703 150.582C110.733 150.422 110.873 150.302 111.053 150.332C112.123 150.512 115.344 150.552 116.404 150.202C116.564 150.152 116.734 150.232 116.784 150.392C116.834 150.552 116.754 150.722 116.594 150.772C115.954 151.002 114.694 151.072 113.493 151.072Z" fill="#C38555"/>
<path d="M147.71 162.98L149.461 164.469C149.461 164.469 151.901 162.041 152.811 162.011C153.732 161.981 152.891 163.23 152.891 163.23C149.941 167.376 146 169.334 146 169.334C145.56 173.22 141.679 188.835 139.279 195.518L137.458 195.068C137.458 195.068 137.168 182.521 137.208 180.183C137.248 177.846 139.109 170.902 140.409 168.944C140.409 168.944 139.569 164.938 140.649 163.01C141.719 161.082 142.819 160.273 143.89 160.153C144.96 160.033 144.04 162.261 143.499 163.04C142.959 163.809 143.349 165.118 143.349 165.118" fill="#E9BA8E"/>
<path d="M139.549 196.017L137.038 195.398L137.028 195.078C137.018 194.569 136.738 182.501 136.778 180.173C136.818 177.785 138.628 171.032 139.959 168.864C139.809 168.055 139.259 164.638 140.269 162.8C141.319 160.912 142.519 159.873 143.84 159.733C144.2 159.693 144.5 159.833 144.67 160.103C145.15 160.912 144.23 162.74 143.85 163.28C143.51 163.769 143.67 164.708 143.76 164.998C143.83 165.228 143.7 165.458 143.47 165.528C143.239 165.597 143.009 165.468 142.939 165.238C142.889 165.088 142.509 163.709 143.149 162.8C143.62 162.121 144.08 160.812 143.94 160.542C142.909 160.692 141.919 161.581 141.019 163.22C140.039 164.998 140.819 168.824 140.829 168.864L140.869 169.034L140.769 169.184C139.529 171.042 137.678 177.895 137.638 180.193C137.598 182.291 137.838 192.751 137.878 194.739L139.009 195.018C141.329 188.385 145.14 173.15 145.58 169.284L145.61 169.054L145.82 168.954C145.86 168.934 149.701 166.996 152.551 162.99C152.661 162.82 152.771 162.61 152.811 162.461C152.201 162.6 150.821 163.729 149.771 164.778L149.491 165.058L147.44 163.32C147.26 163.17 147.24 162.9 147.39 162.72C147.54 162.54 147.81 162.52 147.99 162.67L149.441 163.909C150.241 163.14 151.921 161.631 152.801 161.601C153.302 161.551 153.492 161.831 153.572 161.981C153.852 162.481 153.432 163.2 153.242 163.48C150.611 167.186 147.26 169.144 146.39 169.613C145.82 173.999 142.009 189.184 139.679 195.678L139.549 196.017Z" fill="#C38555"/>
<path d="M150.031 165.848C143.49 168.715 145.02 169.034 144.83 170.403C144.63 171.772 140.869 187.047 139.749 186.947L140.089 191.692C140.089 191.692 141.269 187.666 142.019 184.969C142.769 182.271 143.54 178.935 144.07 176.777C144.57 174.739 145.44 170.623 145.61 169.054C146.87 168.415 147.61 167.846 148.301 167.336C148.911 166.887 149.341 166.487 149.621 166.227C149.861 165.998 150.031 165.848 150.031 165.848Z" fill="#D4A273"/>
<path d="M95.1691 227.064L79.2057 237.533C78.8556 237.763 78.4155 237.773 78.0554 237.553L64.3025 229.331L78.6956 218.152L95.1691 227.064Z" fill="#B50030"/>
<path d="M78.6157 238.132C78.3456 238.132 78.0756 238.062 77.8455 237.922L63.5625 229.381L78.6657 217.652L95.9994 227.033L79.4459 237.892C79.1958 238.052 78.9058 238.132 78.6157 238.132ZM65.0628 229.291L78.2756 237.193C78.4957 237.323 78.7657 237.313 78.9758 237.173L94.3391 227.093L78.7457 218.651L65.0628 229.291Z" fill="#B50030"/>
<path d="M93.6788 222.598L93.5987 226.983L79.4157 236.384C78.7756 236.794 78.0354 236.684 77.7154 235.984C77.2153 234.905 76.9752 233.287 78.8756 231.938L93.6788 222.598Z" fill="#E9DAE4"/>
<path d="M78.3454 213.141C78.3454 213.141 65.3026 221.053 63.5222 221.982L80.0157 231.462L94.8189 222.302L78.3454 213.141Z" fill="#FF366C"/>
<path d="M80.016 231.961L79.796 231.832L62.6423 221.961L63.3225 221.602C65.0728 220.683 77.9956 212.85 78.1256 212.771L78.3357 212.641L95.6494 222.281L80.016 231.961ZM64.3827 221.991L79.996 230.972L93.969 222.321L78.3557 213.63C76.7653 214.599 67.3233 220.313 64.3827 221.991Z" fill="#B50030"/>
<path d="M63.5222 221.977L79.9257 231.557L78.0453 233.066L60.6716 223.195L63.5222 221.977Z" fill="#FF366C"/>
<path d="M78.0856 233.574L59.7117 223.134L63.5425 221.496L80.6661 231.496L78.0856 233.574ZM61.6321 223.244L78.0056 232.545L79.1758 231.606L63.4825 222.445L61.6321 223.244Z" fill="#B50030"/>
<path d="M59.7717 223.105V227.841C60.0118 227.841 78.2057 238.081 78.2057 238.081C78.2057 238.081 79.916 236.442 79.2759 236.662C78.1356 237.042 77.7256 235.683 77.6955 235.283C77.5855 233.915 78.3657 233.375 78.3657 233.375L59.7717 223.105Z" fill="#B50030"/>
<path d="M104.771 154.379C107.692 160.493 113.653 160.463 115.344 160.133L115.464 158.665C115.464 158.665 112.163 159.284 109.592 158.025C106.452 156.487 104.771 154.379 104.771 154.379Z" fill="#CF9D6D"/>
<path d="M137.208 209.621C137.488 204.576 143.68 181.819 135.658 179.321C127.636 176.824 124.015 182.248 124.015 182.248L129.897 206.614V210.81L134.138 212.369L137.208 209.621Z" fill="#E9BA8E"/>
<path d="M134.238 212.847L129.487 211.098V206.603L123.575 182.147L123.675 181.987C123.715 181.927 127.576 176.333 135.798 178.9C142.499 180.988 139.939 195.724 138.409 204.535C138.019 206.803 137.698 208.601 137.648 209.63L137.638 209.81L134.238 212.847ZM130.327 210.509L134.048 211.878L136.798 209.42C136.878 208.321 137.188 206.583 137.558 204.405C138.939 196.433 141.519 181.588 135.528 179.719C128.557 177.542 125.116 181.488 124.476 182.327L130.307 206.503L130.327 210.509ZM137.208 209.62H137.218H137.208Z" fill="#C38555"/>
<path d="M135.378 210.1C135.378 210.1 138.478 192.638 137.858 189.351L139.288 187.812C139.288 187.812 139.378 190.949 139.128 193.407C138.878 195.865 138.418 199.561 138.168 200.86C137.918 202.158 136.858 208.312 136.798 209.341C136.738 210.37 135.378 210.1 135.378 210.1Z" fill="#D4A273"/>
<path d="M131.417 209.792C133.027 210.521 136.578 210.191 137.538 209.422L137.398 215.855C137.398 215.855 133.457 217.334 131.067 216.125C128.676 214.916 131.417 209.792 131.417 209.792Z" fill="#FEFEFE"/>
<path d="M133.407 217.023C132.527 217.023 131.627 216.884 130.867 216.504C130.347 216.244 129.987 215.815 129.807 215.225C129.156 213.167 130.957 209.741 131.037 209.591C131.147 209.391 131.387 209.311 131.587 209.401C133.107 210.09 136.508 209.701 137.268 209.091C137.398 208.991 137.568 208.971 137.718 209.041C137.868 209.111 137.958 209.271 137.958 209.431L137.818 215.865C137.818 216.034 137.708 216.194 137.538 216.254C137.428 216.294 135.448 217.023 133.407 217.023ZM131.617 210.32C131.087 211.429 130.207 213.687 130.617 214.966C130.737 215.325 130.937 215.585 131.257 215.745C133.107 216.684 136.068 215.845 136.968 215.545L137.088 210.13C135.708 210.66 133.187 210.83 131.617 210.32Z" fill="#C4C4C3"/>
<path d="M117.654 186.974C120.844 182.788 126.656 176.764 130.757 179.501C134.867 182.239 132.567 199.032 132.177 203.847C131.797 208.662 131.247 212.599 131.247 212.599L125.726 215.386L123.045 211.28C123.045 211.28 124.785 195.685 124.785 190.051L117.654 186.974Z" fill="#E9BA8E"/>
<path d="M125.576 215.944L122.605 211.399L122.625 211.249C122.645 211.099 124.305 196.114 124.365 190.35L116.994 187.163L117.324 186.733C119.854 183.407 126.256 176.004 131.007 179.161C134.808 181.688 133.527 194.596 132.837 201.539C132.747 202.488 132.667 203.287 132.617 203.896C132.237 208.672 131.687 212.638 131.687 212.678L131.657 212.897L125.576 215.944ZM123.485 211.179L125.876 214.836L130.867 212.318C130.987 211.429 131.437 207.912 131.767 203.806C131.817 203.187 131.897 202.378 131.987 201.429C132.557 195.645 133.897 182.088 130.527 179.84C126.496 177.153 120.525 183.976 118.324 186.793L125.216 189.77V190.05C125.216 195.355 123.665 209.551 123.485 211.179Z" fill="#C38555"/>
<path d="M148.39 229.268C148.39 229.268 148.751 226.571 143.85 223.364C138.108 219.618 138.168 219.338 138.008 215.512C138.008 215.512 137.148 214.703 135.398 215.512C133.647 216.321 132.217 215.952 131.257 215.632C130.297 215.312 131.257 223.694 131.257 223.694L140.119 230.477L142.299 229.988C144.17 230.797 147.48 230.287 148.39 229.268Z" fill="#D9DADA"/>
<path d="M140.009 230.924L139.849 230.805L130.847 223.911L130.827 223.732C130.427 220.225 130.097 215.919 130.837 215.32C130.997 215.19 131.197 215.16 131.387 215.22C132.417 215.57 133.678 215.819 135.218 215.11C137.198 214.191 138.259 215.14 138.299 215.19L138.429 215.31L138.439 215.61C138.579 219.196 138.589 219.416 144.08 222.992C149.151 226.309 148.831 229.186 148.811 229.306L148.791 229.436L148.701 229.536C147.641 230.725 144.21 231.184 142.249 230.415L140.009 230.924ZM131.657 223.462L140.219 230.015L142.339 229.536L142.469 229.586C144.1 230.295 147.06 229.885 147.981 229.076C147.961 228.527 147.611 226.309 143.63 223.702C137.948 219.995 137.768 219.586 137.608 215.719C137.348 215.58 136.698 215.37 135.588 215.879C133.898 216.659 132.457 216.429 131.367 216.099C131.117 216.978 131.317 220.425 131.657 223.462Z" fill="#B7B8B8"/>
<path d="M148.39 229.266C147.49 230.285 144.17 230.794 142.289 229.985L140.109 230.474L143.099 232.762C145.24 233.162 150.111 232.582 148.39 229.266Z" fill="white"/>
<path d="M144.42 233.291C143.88 233.291 143.39 233.241 143.009 233.171L142.829 233.091L139.119 230.254L142.319 229.535L142.449 229.585C144.15 230.324 147.29 229.844 148.061 228.975L148.471 228.516L148.751 229.065C149.441 230.394 149.131 231.283 148.751 231.802C147.921 232.931 145.96 233.291 144.42 233.291ZM143.27 232.362C144.78 232.622 147.29 232.352 148.071 231.293C148.341 230.923 148.391 230.484 148.211 229.944C146.82 230.823 143.97 231.093 142.239 230.424L141.079 230.683L143.27 232.362Z" fill="#B7B8B8"/>
<path d="M129.087 212.707C129.087 212.707 131.237 198.541 131.247 191.418L132.687 191.698C132.687 191.698 132.447 196.413 132.247 198.521C132.047 200.639 131.187 210.659 130.867 212.187L129.087 212.707Z" fill="#D4A273"/>
<path d="M122.805 211.254C124.986 212.483 126.716 212.962 131.247 212.603V218.866C131.247 218.866 124.265 221.504 122.805 217.688V211.254Z" fill="#FEFEFE"/>
<path d="M126.636 220.183C124.856 220.183 123.105 219.663 122.405 217.845C122.385 217.795 122.375 217.745 122.375 217.695V211.262C122.375 211.112 122.455 210.972 122.585 210.892C122.715 210.822 122.875 210.812 123.005 210.892C125.086 212.071 126.766 212.531 131.207 212.191C131.317 212.181 131.437 212.221 131.527 212.301C131.617 212.381 131.667 212.491 131.667 212.61V218.874C131.667 219.054 131.557 219.214 131.397 219.274C131.227 219.324 128.917 220.183 126.636 220.183ZM123.235 217.606C124.426 220.483 129.577 218.974 130.827 218.565V213.06C126.926 213.32 125.136 212.94 123.235 211.961V217.606Z" fill="#C4C4C3"/>
<path d="M110.752 187.626C110.312 185.429 109.232 182.751 107.912 180.683L100.79 179.914L98.9099 183.63C99.9501 188.086 103.231 195.129 106.862 196.558C109.532 197.607 129.646 191.842 130.737 191.443C130.737 191.443 136.678 191.513 138.528 188.555C139.929 186.328 138.388 182.362 137.338 182.492C136.288 182.621 134.618 184.589 134.618 184.589C134.618 184.589 134.978 181.622 133.667 181.792C132.357 181.962 132.797 183.061 132.007 184.19C131.217 185.329 129.987 185.898 129.987 185.898C124.095 187.167 111.103 185.159 109.002 189.085" fill="#E9BA8E"/>
<path d="M107.832 197.086C107.342 197.086 106.952 197.036 106.702 196.946C102.861 195.437 99.5302 188.164 98.49 183.719L98.45 183.569L100.54 179.453L108.152 180.272L108.262 180.442C109.492 182.38 110.533 184.868 111.053 187.036C113.663 186.077 117.774 186.027 121.785 185.977C124.896 185.937 127.826 185.907 129.887 185.467C129.867 185.467 130.967 184.928 131.647 183.939C131.907 183.569 132.007 183.199 132.117 182.85C132.297 182.22 132.507 181.501 133.607 181.361C133.958 181.311 134.278 181.411 134.518 181.661C134.928 182.071 135.058 182.81 135.078 183.469C135.698 182.87 136.568 182.15 137.278 182.071C137.608 182.031 138.078 182.15 138.578 182.95C139.389 184.208 140.039 186.936 138.879 188.784C137.008 191.761 131.527 191.871 130.787 191.871C129.337 192.34 112.883 197.086 107.832 197.086ZM99.3601 183.669C100.44 188.105 103.651 194.828 107.022 196.147C109.442 197.116 129.177 191.541 130.597 191.032L130.667 191.002H130.747C130.817 191.002 136.468 191.042 138.178 188.314C139.069 186.896 138.609 184.688 137.998 183.579C137.688 183.02 137.448 182.9 137.398 182.9C136.758 182.98 135.558 184.138 134.948 184.848L134.038 185.917L134.208 184.518C134.298 183.779 134.268 182.58 133.938 182.25C133.888 182.21 133.838 182.18 133.727 182.19C133.187 182.26 133.117 182.48 132.947 183.08C132.837 183.459 132.697 183.929 132.367 184.418C131.527 185.637 130.227 186.236 130.177 186.266C127.946 186.756 124.966 186.786 121.815 186.826C117.804 186.876 113.373 186.926 110.973 187.985C110.953 187.995 110.923 188.005 110.903 188.015C110.202 188.334 109.672 188.744 109.392 189.263C109.282 189.473 109.022 189.543 108.812 189.433C108.602 189.323 108.532 189.064 108.642 188.854C108.972 188.234 109.542 187.745 110.272 187.365C109.812 185.307 108.832 182.94 107.662 181.052L101.04 180.332L99.3601 183.669Z" fill="#C38555"/>
<path d="M143.04 233.29C139.539 234.499 134.098 234.389 121.225 225.848C121.225 225.848 117.654 226.987 122.805 230.733C127.956 234.479 136.148 236.637 140.049 236.247C143.96 235.858 143.75 233.85 143.04 233.29Z" fill="white"/>
<path d="M139.089 236.718C134.748 236.718 127.256 234.49 122.565 231.073C120.405 229.495 119.444 228.166 119.634 227.007C119.814 225.868 121.065 225.459 121.115 225.439L121.305 225.379L121.475 225.489C134.468 234.11 139.759 233.97 142.909 232.891L143.129 232.812L143.309 232.951C143.699 233.261 144.02 233.92 143.81 234.66C143.629 235.289 142.899 236.388 140.099 236.668C139.789 236.708 139.449 236.718 139.089 236.718ZM121.185 226.328C120.945 226.448 120.525 226.708 120.465 227.147C120.395 227.597 120.635 228.626 123.065 230.384C127.996 233.97 136.088 236.228 140.019 235.819C142.409 235.579 142.899 234.76 142.999 234.42C143.079 234.16 143.019 233.93 142.919 233.771C139.379 234.899 133.947 234.76 121.185 226.328Z" fill="#B7B8B8"/>
<path d="M143.039 233.292C143.039 233.292 143.559 230.844 141.439 229.066C139.318 227.288 133.787 224.201 132.927 223.462C132.077 222.723 131.727 218.567 131.737 218.007C131.737 217.448 130.006 217.717 128.546 218.497C126.876 219.396 123.155 218.487 122.805 217.688C122.305 219.336 121.044 224.301 121.224 225.849C134.107 234.391 139.538 234.501 143.039 233.292Z" fill="#D9DADA"/>
<path d="M139.698 234.279C136.058 234.279 130.576 232.561 120.994 226.197L120.834 226.087L120.814 225.898C120.614 224.239 121.935 219.134 122.405 217.566L122.735 216.457L123.195 217.516C123.225 217.586 123.515 217.836 124.345 218.085C125.635 218.475 127.416 218.615 128.356 218.115C129.556 217.466 131.197 217.036 131.847 217.426C132.057 217.556 132.177 217.766 132.177 217.995C132.177 218.805 132.577 222.571 133.227 223.13C133.547 223.41 134.657 224.089 135.948 224.879C137.948 226.107 140.439 227.646 141.729 228.725C144.019 230.653 143.489 233.26 143.469 233.37L143.419 233.61L143.189 233.69C142.209 234.03 141.089 234.279 139.698 234.279ZM121.645 225.608C134.177 233.9 139.488 233.97 142.669 232.971C142.729 232.361 142.729 230.683 141.179 229.384C139.938 228.335 137.478 226.827 135.498 225.608C134.117 224.759 133.037 224.089 132.667 223.77C131.657 222.901 131.377 218.925 131.337 218.135C130.987 218.065 129.866 218.275 128.766 218.865C127.396 219.604 125.075 219.234 123.855 218.815C123.535 218.705 123.255 218.585 123.035 218.455C122.485 220.413 121.585 224.169 121.645 225.608ZM131.317 217.995C131.317 217.995 131.317 218.005 131.317 218.015C131.317 218.005 131.317 217.995 131.317 217.995Z" fill="#B7B8B8"/>
<path d="M124.556 220.141C125.096 222.428 126.346 224.426 127.906 226.095C128.687 226.934 129.557 227.703 130.477 228.402C131.387 229.122 132.377 229.731 133.368 230.38C132.267 229.961 131.197 229.441 130.207 228.792C129.197 228.173 128.286 227.383 127.466 226.524C126.656 225.645 125.946 224.666 125.436 223.587C124.926 222.498 124.576 221.329 124.556 220.141Z" fill="white"/>
<path d="M134.188 232.32C134.498 228.913 136.518 228.244 138.748 227.645C138.748 227.645 141.619 229.353 142.229 230.652C142.849 231.95 142.629 232.949 142.629 232.949C142.629 232.949 139.819 234.028 135.578 232.729L134.188 232.32Z" fill="white"/>
<path d="M140.309 227.676C140.269 226.547 141.759 224.269 144.83 224.589C144.83 224.589 146.55 225.858 147.41 227.386C147.931 228.325 147.971 229.065 147.971 229.065C147.68 229.434 145.15 230.513 142.559 229.634L140.309 227.676Z" fill="white"/>
<path d="M100.02 161.253C94.8693 160.004 87.5078 165.209 96.9998 184.879C96.9998 184.879 101.141 180.643 109.182 180.643C109.182 180.643 108.252 175.798 106.562 173.301" fill="#90D1DB"/>
<path d="M96.9897 185.307C96.9697 185.307 96.9397 185.307 96.9197 185.307C96.7797 185.287 96.6697 185.197 96.6096 185.077C89.8782 171.111 91.9686 165.197 93.819 162.909C95.3194 161.061 97.7299 160.272 100.12 160.851C100.35 160.901 100.49 161.131 100.43 161.361C100.37 161.59 100.15 161.73 99.9203 161.67C97.8299 161.161 95.7895 161.82 94.4892 163.439C92.7888 165.536 90.8984 171.011 97.1398 184.188C98.39 183.129 102.241 180.372 108.672 180.232C108.392 178.943 107.532 175.477 106.222 173.548C106.092 173.359 106.142 173.089 106.332 172.959C106.532 172.829 106.792 172.879 106.922 173.069C108.642 175.606 109.562 180.372 109.602 180.572C109.622 180.691 109.592 180.821 109.512 180.921C109.432 181.021 109.312 181.071 109.182 181.071C101.401 181.071 97.3398 185.137 97.2998 185.177C97.2198 185.257 97.1098 185.307 96.9897 185.307Z" fill="#307F8C"/>
<path d="M135.378 218.785C135.238 218.785 135.108 218.685 135.078 218.535C135.048 218.375 135.158 218.215 135.318 218.185L137.048 217.855C137.218 217.815 137.368 217.935 137.398 218.095C137.428 218.255 137.318 218.415 137.158 218.445L135.438 218.785C135.418 218.785 135.398 218.785 135.378 218.785Z" fill="white"/>
<path d="M129.086 221.353C128.946 221.353 128.816 221.253 128.786 221.103C128.756 220.943 128.866 220.783 129.026 220.753L130.756 220.423C130.926 220.393 131.076 220.503 131.106 220.663C131.136 220.823 131.026 220.983 130.866 221.013L129.136 221.343C129.126 221.353 129.106 221.353 129.086 221.353Z" fill="white"/>
<path d="M129.957 223.728C129.817 223.728 129.687 223.628 129.657 223.478C129.627 223.318 129.737 223.158 129.897 223.128L131.627 222.798C131.797 222.768 131.947 222.878 131.977 223.038C132.007 223.198 131.897 223.358 131.737 223.388L130.007 223.718C129.997 223.728 129.977 223.728 129.957 223.728Z" fill="white"/>
<path d="M97.1398 184.189C96.4797 182.89 94.8693 179.134 93.9091 175.927C92.9489 172.71 92.5388 169.054 93.0989 166.466C93.6591 163.879 95.2294 162.66 95.2294 162.66C93.0689 165.597 92.8889 173.489 98.6501 183.1C98.6501 183.09 97.7999 183.579 97.1398 184.189Z" fill="#D4EDF1"/>
<path d="M131.437 225.569C131.297 225.569 131.167 225.469 131.137 225.319C131.107 225.159 131.217 224.999 131.377 224.959L133.107 224.629C133.287 224.589 133.427 224.709 133.467 224.869C133.497 225.029 133.387 225.189 133.227 225.229L131.497 225.559C131.467 225.569 131.457 225.569 131.437 225.569Z" fill="white"/>
<path d="M134.048 227.029C133.908 227.029 133.778 226.929 133.748 226.779C133.718 226.619 133.828 226.459 133.988 226.429L135.718 226.099C135.888 226.069 136.038 226.179 136.068 226.339C136.098 226.499 135.988 226.659 135.828 226.689L134.098 227.019C134.078 227.029 134.068 227.029 134.048 227.029Z" fill="white"/>
<path d="M136.128 220.382C135.988 220.382 135.858 220.282 135.828 220.132C135.798 219.972 135.908 219.812 136.068 219.772L137.798 219.442C137.978 219.412 138.118 219.522 138.158 219.682C138.188 219.842 138.078 220.002 137.918 220.042L136.188 220.372C136.158 220.372 136.148 220.382 136.128 220.382Z" fill="white"/>
<path d="M137.208 221.91C137.068 221.91 136.938 221.81 136.908 221.66C136.878 221.5 136.988 221.34 137.148 221.31L138.878 220.98C139.048 220.94 139.198 221.06 139.228 221.22C139.258 221.38 139.148 221.54 138.988 221.57L137.258 221.9C137.248 221.91 137.228 221.91 137.208 221.91Z" fill="white"/>
<path d="M138.918 223.568C138.778 223.568 138.648 223.468 138.618 223.318C138.588 223.158 138.698 222.998 138.858 222.968L140.588 222.638C140.758 222.608 140.908 222.718 140.938 222.878C140.968 223.038 140.858 223.198 140.698 223.228L138.968 223.558C138.958 223.568 138.938 223.568 138.918 223.568Z" fill="white"/>
<path d="M120.805 232.277L121.715 240.639C121.765 241.089 122.005 241.478 122.385 241.718C123.475 242.417 126.086 243.146 128.486 241.748C128.876 241.518 129.096 241.078 129.126 240.619L129.667 231.848L120.805 232.277Z" fill="#E7F7F6"/>
<path d="M130.827 230.689C130.827 233.127 128.316 233.836 125.206 233.836C122.105 233.836 119.584 233.237 119.584 230.689C119.584 228.032 122.095 227.473 125.206 227.473C128.306 227.473 130.827 228.232 130.827 230.689Z" fill="#C58127"/>
<path d="M125.086 230.8C127.455 230.8 129.377 230.223 129.377 229.511C129.377 228.8 127.455 228.223 125.086 228.223C122.716 228.223 120.795 228.8 120.795 229.511C120.795 230.223 122.716 230.8 125.086 230.8Z" fill="#8E4918"/>
<path d="M129.377 213.159L129.397 217.654C129.397 217.654 130.287 217.304 130.817 217.294V213.059L129.367 213.119V213.159H129.377Z" fill="#D3D3D3"/>
<path d="M135.678 210.482L135.758 214.908C135.758 214.908 136.418 214.668 136.968 214.718L137.078 210.133C137.088 210.133 136.618 210.333 135.678 210.482Z" fill="#D3D3D3"/>
<path d="M114.283 196.184C115.754 196.823 117.164 197.582 118.574 198.331C119.965 199.121 121.355 199.9 122.685 200.799C121.215 200.16 119.805 199.4 118.394 198.651C117.004 197.862 115.604 197.083 114.283 196.184Z" fill="#F8B3AA"/>
</g>
<defs>
<linearGradient id="paint0_linear" x1="105.384" y1="147.674" x2="108.298" y2="135.395" gradientUnits="userSpaceOnUse">
<stop stop-color="white"/>
<stop offset="1" stop-color="white" stop-opacity="0"/>
</linearGradient>
<linearGradient id="paint1_linear" x1="119.846" y1="144.249" x2="123.11" y2="133.444" gradientUnits="userSpaceOnUse">
<stop stop-color="white"/>
<stop offset="1" stop-color="white" stop-opacity="0"/>
</linearGradient>
<clipPath id="clip0">
<rect width="160" height="247" fill="white"/>
</clipPath>
</defs>
</svg>
